PathFileType	3	(X/Y/Z)	squats_1__view2_aligned.trc
DataRate	CameraRate	NumFrames	NumMarkers	Units	OrigDataRate	OrigDataStartFrame	OrigNumFrames
100.0	100.0	6	19	mm	100.0	953	1660
Frame#	Time	pelvis			neck			head			hip_left			hip_right			knee_left			knee_right			ankle_left			ankle_right			heel_left			heel_right			toe_left			toe_right			shoulder_left			shoulder_right			elbow_left			elbow_right			wrist_left			wrist_right			
		X1	Y1	Z1	X2	Y2	Z2	X3	Y3	Z3	X4	Y4	Z4	X5	Y5	Z5	X6	Y6	Z6	X7	Y7	Z7	X8	Y8	Z8	X9	Y9	Z9	X10	Y10	Z10	X11	Y11	Z11	X12	Y12	Z12	X13	Y13	Z13	X14	Y14	Z14	X15	Y15	Z15	X16	Y16	Z16	X17	Y17	Z17	X18	Y18	Z18	X19	Y19	Z19	
953	9.52000	100.021886	868.958840	137.395703	82.443754	1372.850760	-95.629226	66.112968	1487.302869	-229.429276	25.433772	861.660360	140.948753	174.610001	876.257261	133.842654	-42.856428	510.433911	-54.738020	242.500798	549.242787	-76.434302	-56.979049	155.399651	93.615953	267.257714	196.150092	69.772258	-57.768840	114.228318	133.666409	265.453079	155.346776	109.900506	-36.775450	89.292262	-77.820236	292.926091	129.291323	-100.002998	-80.459762	1339.955585	-36.408420	255.338663	1312.390519	-63.770045	-161.713332	1093.355020	61.526508	336.927388	1047.879607	-28.049059	-130.017576	977.064268	-149.164350	269.320071	920.394837	-220.155933
954	9.53000	100.748890	874.792581	133.931525	82.166105	1381.195599	-93.969944	65.433749	1496.753094	-226.787712	26.200433	867.516925	137.710986	175.297348	882.068178	130.152066	-41.617506	512.224696	-50.988780	241.269329	548.699360	-72.063883	-55.494713	155.218028	93.923803	266.963103	193.409807	70.009907	-56.101136	113.800155	133.736103	265.335004	152.290790	109.856153	-36.114496	89.198598	-77.911648	291.622416	126.927131	-100.374530	-80.489539	1348.118572	-34.643411	255.142804	1320.635290	-62.550353	-161.618967	1100.984495	62.554580	337.167840	1055.986136	-26.949629	-129.800844	985.436199	-148.903731	270.881415	928.598807	-219.885209
955	9.54000	101.475894	880.626321	130.467347	81.888457	1389.540438	-92.310661	64.754529	1506.203319	-224.146149	26.967095	873.373489	134.473220	175.984694	887.879095	126.461478	-40.378584	514.015481	-47.239539	240.037860	548.155933	-67.693463	-54.010377	155.036405	94.231652	266.668492	190.669523	70.247556	-54.433431	113.371993	133.805796	265.216930	149.234804	109.811800	-35.453541	89.104933	-78.003060	290.318740	124.562940	-100.746063	-80.519317	1356.281558	-32.878403	254.946945	1328.880062	-61.330661	-161.524603	1108.613971	63.582652	337.408292	1064.092664	-25.850199	-129.584113	993.808130	-148.643111	272.442758	936.802777	-219.614485
956	9.55000	102.202898	886.460062	127.003169	81.610808	1397.885277	-90.651379	64.075310	1515.653544	-221.504586	27.733756	879.230054	131.235453	176.672040	893.690011	122.770889	-39.139662	515.806266	-43.490299	238.806392	547.612505	-63.323043	-52.526041	154.854781	94.539502	266.373881	187.929238	70.485204	-52.765726	112.943830	133.875490	265.098856	146.178819	109.767447	-34.792586	89.011269	-78.094472	289.015065	122.198748	-101.117596	-80.549094	1364.444545	-31.113395	254.751086	1337.124833	-60.110968	-161.430239	1116.243446	64.610723	337.648743	1072.199193	-24.750769	-129.367382	1002.180061	-148.382492	274.004101	945.006747	-219.343762
957	9.56000	102.929902	892.293802	123.538991	81.333160	1406.230116	-88.992097	63.396090	1525.103769	-218.863023	28.500418	885.086618	127.997687	177.359386	899.500928	119.080301	-37.900740	517.597051	-39.741059	237.574923	547.069078	-58.952624	-51.041705	154.673158	94.847352	266.079270	185.188954	70.722853	-51.098022	112.515668	133.945184	264.980781	143.122833	109.723093	-34.131632	88.917604	-78.185885	287.711390	119.834557	-101.489129	-80.578872	1372.607531	-29.348386	254.555227	1345.369605	-58.891276	-161.335874	1123.872921	65.638795	337.889195	1080.305722	-23.651339	-129.150651	1010.551992	-148.121873	275.565444	953.210717	-219.073038
958	9.57000	103.656906	898.127543	120.074814	81.055511	1414.574956	-87.332815	62.716870	1534.553994	-216.221459	29.267079	890.943183	124.759920	178.046733	905.311845	115.389712	-36.661818	519.387836	-35.991818	236.343454	546.525651	-54.582204	-49.557370	154.491535	95.155201	265.784658	182.448669	70.960502	-49.430317	112.087505	134.014878	264.862707	140.066847	109.678740	-33.470677	88.823939	-78.277297	286.407715	117.470366	-101.860661	-80.608649	1380.770518	-27.583378	254.359369	1353.614376	-57.671584	-161.241510	1131.502396	66.666866	338.129647	1088.412251	-22.551909	-128.933920	1018.923923	-147.861254	277.126787	961.414688	-218.802314
